<svg xmlns="http://www.w3.org/2000/svg" xmlns:xlink="http://www.w3.org/1999/xlink" viewBox="0 0 979.19 749.61"><defs><style>.cls-1,.cls-10,.cls-14{fill:none;}.cls-2{fill:#b52637;}.cls-3{fill:url(#linear-gradient);}.cls-4{fill:url(#linear-gradient-2);}.cls-5{fill:url(#linear-gradient-3);}.cls-6{fill:#f7f7fc;opacity:0.4;}.cls-7{fill:#d5e53c;}.cls-8{fill:#dadaea;}.cls-9{clip-path:url(#clip-path);}.cls-10{stroke:#efeffa;}.cls-10,.cls-14{stroke-miterlimit:10;}.cls-11{fill:#efeffa;}.cls-12{fill:#fff;}.cls-13{clip-path:url(#clip-path-2);}.cls-14{stroke:#3b4249;stroke-width:1.5px;}</style><linearGradient id="linear-gradient" x1="32.83" y1="25.76" x2="179.87" y2="713.19" gradientUnits="userSpaceOnUse"><stop offset="0" stop-color="#bb2e3d"/><stop offset="1" stop-color="#ce2a42"/></linearGradient><linearGradient id="linear-gradient-2" x1="280.16" y1="-229.54" x2="686.51" y2="767.84" gradientUnits="userSpaceOnUse"><stop offset="0" stop-color="#cd273f"/><stop offset="0.47" stop-color="#d62e44"/><stop offset="1" stop-color="#e73a4d"/></linearGradient><linearGradient id="linear-gradient-3" x1="442.37" y1="-0.33" x2="589.73" y2="607.18" gradientUnits="userSpaceOnUse"><stop offset="0" stop-color="#ebecf4"/><stop offset="1" stop-color="#dadaea"/></linearGradient><clipPath id="clip-path"><path class="cls-1" d="M282.44,657.33h0l-.59.26c-23.5,9.81-52.81-6.8-65.47-37.12s-3.87-62.84,19.63-72.66l.61-.24h0l18.5-7.73,45.84,109.78Z"/></clipPath><clipPath id="clip-path-2"><path class="cls-1" d="M928.71,616.81h0l-.58.25c-23,9-50.68-8.51-61.87-39.22s-1.62-62.93,21.36-72c.2-.08.4-.16.6-.22v0l18.09-7.12,40.51,111.2Z"/></clipPath></defs><g id="Layer_2" data-name="Layer 2"><g id="Layer_2-2" data-name="Layer 2"><path class="cls-2" d="M953.43,633c-23.87,38.79-73,68.11-86.16,68.3,0,0-545.3,47-655.85,47.67-8.27,0-23,1.48-36.4-.14-5.13-.62-10.7-2.58-14.71-4a43.89,43.89,0,0,1-10.83-6.19c-16-10.4-22-39.3-22.64-42C92.28,548.21,10.25,158.4,2.15,119.44c-.42-2-2.25-13.94-2.15-15.58,1-16.3,24.47-77.7,48.78-96.8C54.14,2.85,71,1.16,76.91.24L773.42,16c14.71.33,29.08,8.54,31.33,18.35l18,78.21L834,102.66,957.05,616.38C957.4,622.37,956.78,627.54,953.43,633Z"/><path class="cls-3" d="M149.48,738.68c-16-10.4-22-39.3-22.64-42C92.28,548.21,10.25,158.4,2.15,119.44c-.42-2-2.25-13.94-2.15-15.58,1-16.3,24.47-77.7,48.78-96.8C54.14,2.85,71,1.16,76.91.24L217,647C215.71,675.09,149.48,738.68,149.48,738.68Z"/><path class="cls-4" d="M823.14,34.36c-2.26-9.8-15.55-18-30.26-18.35L85.36,0C67.74-.38,56.52,8,59,18.82L206,657.28C208.5,668.07,223.41,676,240.7,675l694.78-41c14.43-.85,23.55-9.49,21.29-19.29Z"/><path class="cls-5" d="M768.44,101.33l84,382.49c1.08,5.21-3.89,10.29-10.8,10.69L303.33,522.34l-20.07,1.17a19.25,19.25,0,0,1-7-.88c-4.89-1.61-8.6-5.17-9.43-9.15L163.11,91a6.84,6.84,0,0,1,3.08-7.63A13.94,13.94,0,0,1,168.84,82a16.2,16.2,0,0,1,6.27-1l43.57.78L753.5,91.74C760.54,91.88,767.36,96.12,768.44,101.33Z"/><path class="cls-6" d="M843.26,494.47,284.18,523.75c-8.23.38-15.56-3.43-16.75-7.93L163.79,93.8c-.65-2.45-2.68-6.68,2.67-10.69,1.34,2.67,4.66,9.13,7.55,11.62,85.13,73.39,195.66,25.4,301.39,97.83C558.17,249.26,519.86,303,613.08,366c73.7,49.8,123.21,30.34,191,78.26C830.21,462.69,828.5,472.4,843.26,494.47Z"/><g id="a4AX4j"><path class="cls-7" d="M455.63,52.29c1.75,1.06,3.34,2.12,5,3,3.18,1.7,6.45,2.78,9.69,2,1.69-.41,3.25-1.17,3.7-3s-.62-4.3-2.8-5.62-4.62-2.51-6.93-3.76c-.93-.51-1.89-1-2.77-1.6-2.87-2-3.91-5-2.53-7.58A8.54,8.54,0,0,1,466,31.22,22.31,22.31,0,0,1,476.87,33c2.93,1.23,2.93,1.25,3,4.12,0,.64,0,1.29-.05,1.93,0,.11-.11.21-.18.34-1.07-.67-2.08-1.38-3.14-2a14,14,0,0,0-10.12-1.69,3.12,3.12,0,0,0-2.15,1.83,1.52,1.52,0,0,0,.86,2c1.63.92,3.29,1.78,5,2.61a32.41,32.41,0,0,1,6.62,3.86,9.65,9.65,0,0,1,3.77,7.08,14.71,14.71,0,0,1,0,2.74c-.23,2-1.64,3.25-3.16,4.31-2.9,2-6.42,2.54-10.32,2.21a20.56,20.56,0,0,1-9.7-3.54c-1.07-.71-1.7-1.4-1.57-2.63A36.91,36.91,0,0,0,455.63,52.29Z"/><path class="cls-7" d="M489.4,53.69a9.1,9.1,0,0,0-.56,1.89c-.09,1,0,2,0,3.05s-.07,1.22-1.2,1.21c-.82,0-1.63,0-2.46-.05-1.17,0-1.34-.21-1.34-1.42,0-2.44,0-4.89,0-7.33.07-5.53.16-11,.2-16.59,0-.86.32-1.18,1.22-1.09s1.64,0,2.47.06c1,0,1.09.16,1.13,1.14.11,3.75.24,7.51.37,11.27a5.65,5.65,0,0,0,.11.68l.25.17,1.92-1.9a6.46,6.46,0,0,0,1-1.05c.93-1.47,2.45-1.76,4.29-1.51a20.53,20.53,0,0,0,2.29.06l-3.48,5c-.59.84-1.18,1.68-1.8,2.49a1.21,1.21,0,0,0-.07,1.41,25.54,25.54,0,0,0,6.19,7.89c.74.66,1.51,1.29,2.3,1.9s.82,1,.39,1.6a22.31,22.31,0,0,1-1.48,2c-.14.15-.72.09-1-.08a22.88,22.88,0,0,1-5.73-4.91c-1.39-1.65-2.68-3.38-4-5.07-.22-.28-.46-.55-.69-.83Z"/><path class="cls-7" d="M553.75,35.67c.53,3.21-.41,6.15.67,9.41,1-.43,1.83-.83,2.7-1.19a4.18,4.18,0,0,1,5.68,3.66,47.43,47.43,0,0,1,0,4.77c0,1.09-.16,2.15-.16,3.24,0,1.66.55,2.19,2.53,2.38a17.81,17.81,0,0,1-.23,3.47c-.37,1.44-2.69,1.75-4.35.73a5.09,5.09,0,0,1-2.54-3.64,34.65,34.65,0,0,1-.19-4.19c0-1.16,0-2.31,0-3.46,0-.69-.11-1.48-.93-1.65a2.7,2.7,0,0,0-2.13.27A4.29,4.29,0,0,0,553.77,52c-.19,2.81-.19,5.67-.22,8.53,0,.74-.26,1.1-1.07,1.06-1,0-1.92-.06-2.88,0-.71,0-1-.32-1-1,0-1.63-.08-3.27-.06-4.9.12-6.51.28-13,.38-19.53,0-.65.31-.95.89-.91C551.09,35.34,552.41,35.52,553.75,35.67Z"/><path class="cls-7" d="M513.24,57.05c0,1.17-.07,2.27-.19,3.35,0,.21-.38.43-.64.48-2.71.55-7.73.09-10.5-3.55a9.72,9.72,0,0,1-2.12-8.28,8,8,0,0,1,5.29-6.24,8.85,8.85,0,0,1,6.19.22,4.9,4.9,0,0,1,3.15,6.19,6.69,6.69,0,0,1-7.72,3.9c-.41-.12-1.16-.1-1.21.08a2.15,2.15,0,0,0,.19,1.45A4.2,4.2,0,0,0,509.2,57C510.44,57.09,511.68,57,513.24,57.05Zm-5.88-7.15a4,4,0,0,0,2.6-1.54,1.34,1.34,0,0,0-.77-2,3.86,3.86,0,0,0-3.62,1.62C505.09,49.11,505.69,49.87,507.36,49.9Z"/><path class="cls-7" d="M528.07,56c-.06.92-.06,1.66-.17,2.38-.21,1.45-.77,2.21-2.85,2.46a9.08,9.08,0,0,1-1.38,0,3.56,3.56,0,0,1-3.14-2,10.24,10.24,0,0,1-1-5.52c0-1.32.14-2.62.2-3.94.07-1.79-.13-2-2.16-2.27,0-1.08-.08-2.17,0-3.22,0-.27.49-.55.82-.59,1.2-.15,1.46-.39,1.47-1.54,0-2,.07-4.07.07-6.11,0-.58.21-.85.83-.83.93,0,1.86.06,2.78.05.7,0,1.05.3,1.07.95,0,1.23,0,2.45,0,3.68,0,.92.07,1.84.11,2.77a.92.92,0,0,0,1,1c.79.07,1.58.19,2.37.25.57.05.82.27.73.81s-.08.8-.11,1.2c-.19,1.88-.19,1.88-2.23,2a2.93,2.93,0,0,0-1,.07c-.3.14-.66.43-.7.74a38,38,0,0,0-.29,4,8.69,8.69,0,0,0,.32,2.56C525.37,56.74,526.49,57.16,528.07,56Z"/><path class="cls-7" d="M544.93,47.91a9.89,9.89,0,0,1-.92-.38c-3-1.6-5.24-1-6.87,1.6-1.48,2.36-.77,5.59,1.61,7.71a4.32,4.32,0,0,0,4.72,1c.37-.15.72-.32,1.24-.56a6.42,6.42,0,0,1-.08,3.55,1.73,1.73,0,0,1-1.11.83c-4.22,1.12-8.5-1.14-10.69-5.37s-.79-10,2.28-12.08c2.65-1.75,5.68-1.88,9.07-.42a1.14,1.14,0,0,1,.82,1.25C544.93,46,545,46.86,544.93,47.91Z"/><path class="cls-7" d="M368.35,54.41c.14,1.46.32,2.77.37,4.06.06,1.6-.56,2.19-2.27,2.16a33,33,0,0,1-6.2-.28,17.67,17.67,0,0,1-12.59-8.92A37.78,37.78,0,0,1,345.89,48c-.41-1-.92-1.58-2-1.59a4.12,4.12,0,0,1-.93-.24c-.09-1.1-.21-2.16-.25-3.21,0-.63.22-1.22,1-1,.95.26.83-.32.93-.83A36.14,36.14,0,0,1,345.77,36a13,13,0,0,1,5.34-6.48,13.82,13.82,0,0,1,5.14-1.46,18.45,18.45,0,0,1,6.79,0,6.53,6.53,0,0,1,.76.2c2.62.8,2.82,1,2.88,3.5a16.86,16.86,0,0,0,.06,1.74c.11.82-.29.85-1,.66a28.33,28.33,0,0,0-4.73-1.1c-5.69-.49-9.56,2.52-10.55,7.21a3.93,3.93,0,0,0-.06.6c0,.86.16,1,1.1,1.06l9.65.33c1.43,0,1.48.07,1.51,1.43a18.33,18.33,0,0,0,.1,1.95c.1.73-.23.91-.92.89-2.9-.06-5.78,0-8.67-.14-1.75-.06-2.22.37-1.27,2.31A11.13,11.13,0,0,0,359,54.46a13,13,0,0,0,7.69.29C367.13,54.61,367.65,54.55,368.35,54.41Z"/><path class="cls-7" d="M413.24,54.17a14.53,14.53,0,0,1,0,3.1c-.46,2-3.63,2.11-5.5.31a5.68,5.68,0,0,1-1.7-4.33c0-1,.17-1.87.15-2.82,0-1.19-.16-2.39-.29-3.59a1.57,1.57,0,0,0-1.25-1.41c-.81-.24-1.56-.18-1.81.49a12,12,0,0,0-1,3.64c-.13,2.24.06,4.56.09,6.84,0,1.2,0,1.21-1.29,1.2-1.13,0-2.26,0-3.55-.06-.07-1.36-.18-2.68-.19-4q0-8.05,0-16.1c0-1.73.16-3.43.24-5.14,0-.46.19-.73.74-.71,1,0,1.93.06,2.89.06a.81.81,0,0,1,.93.84c.06,1.34.09,2.67.13,4s0,2.38.09,3.57.3,1.18,1.27.86a24.24,24.24,0,0,1,3.28-1,3.4,3.4,0,0,1,3.38,1.28,3.87,3.87,0,0,1,.85,1.93c.16,3,.2,5.94.26,8.91,0,1.51.14,1.63,1.74,1.91Z"/><path class="cls-7" d="M378.84,39.81c0,1.25.06,2.37.1,3.49,0,.49-.23.56-.72.54a11.94,11.94,0,0,0-2.4.1c-.67.1-.92.53-.89,1.28.06,1.46-.09,2.89-.11,4.34a4.61,4.61,0,0,0,.26,1.44c.41,1.25,1.06,2.22,2.63,2a2.15,2.15,0,0,1,.5,0c.75,2.74-1.11,4.7-4,4.28A5.08,5.08,0,0,1,370,52.18c0-1.46.11-2.89.14-4.34,0-.81,0-1.62,0-2.44-.07-1.19-.65-1.72-1.94-1.83-1.11-.1-1.18-.17-1.2-1.18,0-.71,0-1.42,0-2.14s.23-.74.8-.68a5,5,0,0,0,1.16,0A1.18,1.18,0,0,0,370,38.24c0-2,.06-3.92,0-5.89,0-.93.38-1.24,1.26-1.21l2.46,0a1,1,0,0,1,1.07,1.08c0,2,.09,4,.14,5.93,0,1,.23,1.25,1.27,1.43A25.14,25.14,0,0,0,378.84,39.81Z"/><path class="cls-7" d="M393.53,44.29l-1.18-.66a4.43,4.43,0,0,0-4.66-.13A5.88,5.88,0,0,0,385.81,51a5.8,5.8,0,0,0,4.33,3.49,7.1,7.1,0,0,0,2.49-.4,4.67,4.67,0,0,0,1-.52,6.53,6.53,0,0,1,0,3.57,1.56,1.56,0,0,1-1,.78c-5.29,1.2-10.12-1.63-11.69-7.33-1-3.5-.42-6.49,1.75-8.88s4.85-3.11,8.38-2.3a10.22,10.22,0,0,1,1.78.69,1.35,1.35,0,0,1,.86,1.32C393.66,42.28,393.59,43.18,393.53,44.29Z"/><path class="cls-7" d="M433.54,53.7c-.22.36-.41.64-.59.92a9.93,9.93,0,0,1-6.33,4.53,20.51,20.51,0,0,1-4.18.27A6.5,6.5,0,0,1,419,58.2a1.26,1.26,0,0,1-.56-.64c-.14-1-.19-2-.28-3.06.79.2,1.36.32,1.92.49a7.65,7.65,0,0,0,9-4.19c.28-.78-.41-.85-.86-1.24,0-1.31-.07-2.66-.1-4l.85,0a2.33,2.33,0,0,0,2.7-1.91,12.67,12.67,0,0,0,.37-2c.17-2.84,1.85-4.77,3.57-6.66a10.51,10.51,0,0,1,6.67-3.37,10.4,10.4,0,0,1,5.23.49c1.2.47,1.33.69,1.29,1.86-.07,2.53-.16,5.07-.23,7.6,0,1,0,2,0,3.06,0,.74.29,1.11,1.11,1.12a7.84,7.84,0,0,1,1.11.24c.11,1.25.26,2.48.3,3.7,0,.79-.41,1.09-1.45.85s-1.15.19-1.19.93c-.12,2.12-.25,4.24-.44,6.34a1.87,1.87,0,0,1-.53,1.17c-1.25,1.15-2.56,2.24-3.86,3.33-.89.74-1,.7-2-.3-2.43-2.55-4.85-5.1-7.29-7.64A10,10,0,0,0,433.54,53.7ZM441,45.6c1.62.06,2.16-.32,2.14-1.54,0-1.91,0-3.81-.1-5.72a8.14,8.14,0,0,0-.38-1.53c-.53.15-1.07.29-1.59.46-.15,0-.25.2-.38.3-2.15,1.64-3.23,4-4,6.53-.24.77,0,1.07.9,1.18C438.74,45.41,439.89,45.49,441,45.6Zm-2.86,4.72-.12.26c1.21,1.45,2.39,2.92,3.65,4.33.58.64,1.17.45,1.19-.32,0-1.37,0-2.76,0-4.18Z"/></g><path class="cls-7" d="M247.93,35.36l3.21.06,2.72,6,4.55-5.85,3.57.06-2.11,14-3.14-.06,1.37-9.14-4.8,5.91h-.08l-2.95-6-1.4,9.07-3.1,0Z"/><path class="cls-7" d="M270.41,35.68l3,.06,4,14.21-3.18-.06-.83-3.17-6-.11-1.75,3.12-3.35-.06Zm2.23,8.3-1.21-4.65-2.53,4.58Z"/><path class="cls-7" d="M278.74,44.12a7.31,7.31,0,0,1,1.78-5.82,7.64,7.64,0,0,1,6-2.46,8,8,0,0,1,6.05,2.54l-2,2a5.49,5.49,0,0,0-3.9-1.7,4.54,4.54,0,0,0-3.51,1.48A5,5,0,0,0,282,44.08a3.9,3.9,0,0,0,4,3.44,5.42,5.42,0,0,0,2.45-.49l.38-2.28-3.12-.06.39-2.66,6.12.12-1.12,7a9,9,0,0,1-4.95,1.23C282.9,50.29,279.26,48.32,278.74,44.12Z"/><path class="cls-7" d="M296.65,36.28l3.09,0-2,14-3.1-.06Z"/><path class="cls-7" d="M302,44.54a7.22,7.22,0,0,1,7.49-8.26,7.25,7.25,0,0,1,6,3.1l-2.32,1.74a4.65,4.65,0,0,0-3.71-2,4,4,0,0,0-3.11,1.39,5,5,0,0,0-1.16,4,3.9,3.9,0,0,0,3.88,3.46,4.23,4.23,0,0,0,3.13-1.33l2.28,2.13a6.41,6.41,0,0,1-5.06,2C305.61,50.72,302.51,48.3,302,44.54Z"/><path class="cls-7" d="M591.84,55.92l2-1.91A5.86,5.86,0,0,0,598,56c1.22,0,2-.54,1.92-1.42-.09-.68-.64-1.1-2.59-1.9s-3.62-1.81-3.89-3.88a3.73,3.73,0,0,1,.82-3,5.13,5.13,0,0,1,4-1.5,7.68,7.68,0,0,1,5.44,2.21l-1.81,2.08a5.31,5.31,0,0,0-3.5-1.59c-1.29,0-1.92.68-1.83,1.38s.69,1.08,2.67,1.91,3.54,1.82,3.82,3.87a3.73,3.73,0,0,1-.84,3,5.11,5.11,0,0,1-4,1.51A8.36,8.36,0,0,1,591.84,55.92Z"/><path class="cls-7" d="M605.54,52.76a7.34,7.34,0,0,1,1.67-5.83,7.1,7.1,0,0,1,5.61-2.4,7.21,7.21,0,0,1,5.92,3.13l-2.27,1.73a4.55,4.55,0,0,0-3.65-2,3.84,3.84,0,0,0-3,1.37,5,5,0,0,0-1.11,4,3.91,3.91,0,0,0,3.83,3.48,4,4,0,0,0,3-1.31L617.81,57a6.15,6.15,0,0,1-4.94,2A7.24,7.24,0,0,1,605.54,52.76Z"/><path class="cls-7" d="M625.85,54.62l-2.27-.06L623,59,620,59l1.81-14,5,.12a6.63,6.63,0,0,1,4.56,1.51,4.68,4.68,0,0,1,1.46,2.86,4.1,4.1,0,0,1-.81,3.31,5.1,5.1,0,0,1-3,1.61l3,4.86-3.46-.08Zm.79-2.71a3.36,3.36,0,0,0,2.66-.84,1.7,1.7,0,0,0,.38-1.41,1.76,1.76,0,0,0-.59-1.14,3.15,3.15,0,0,0-2.09-.63l-2.54-.06-.52,4Z"/><path class="cls-7" d="M636.49,45.33l10.31.24-.35,2.73-7.29-.17L638.8,51l6.41.15-.35,2.7-6.41-.15-.38,3,7.42.18-.35,2.73-10.43-.24Z"/><path class="cls-7" d="M650,45.64l10.31.24L660,48.62l-7.3-.17-.35,2.86,6.41.15-.35,2.69L652,54l-.37,3,7.42.17-.35,2.74-10.42-.25Z"/><path class="cls-7" d="M663.49,46l2.8.06,5.29,9,1.1-8.89,3,.07-1.7,14-2.59-.06-5.49-9.32L664.77,60l-3-.07Z"/><path class="cls-8" d="M282.44,657.33h0l-.59.26c-23.5,9.81-52.81-6.8-65.47-37.12s-3.87-62.84,19.63-72.66l.61-.24h0l18.5-7.73,45.84,109.78Z"/><g class="cls-9"><line class="cls-10" x1="261.2" y1="547.55" x2="210.56" y2="568.18"/><line class="cls-10" x1="261.2" y1="552.08" x2="210.56" y2="572.71"/><line class="cls-10" x1="261.2" y1="556.6" x2="210.56" y2="577.23"/><line class="cls-10" x1="261.2" y1="561.13" x2="210.56" y2="581.75"/><line class="cls-10" x1="261.2" y1="565.65" x2="210.56" y2="586.28"/><line class="cls-10" x1="261.2" y1="570.17" x2="210.56" y2="590.8"/><line class="cls-10" x1="261.2" y1="574.7" x2="210.56" y2="595.33"/><line class="cls-10" x1="261.2" y1="579.22" x2="210.56" y2="599.85"/><line class="cls-10" x1="261.2" y1="583.75" x2="210.56" y2="604.37"/><line class="cls-10" x1="261.2" y1="588.27" x2="210.56" y2="608.9"/><line class="cls-10" x1="261.2" y1="592.79" x2="210.56" y2="613.42"/><line class="cls-10" x1="261.2" y1="597.32" x2="210.56" y2="617.95"/><line class="cls-10" x1="261.2" y1="601.84" x2="210.56" y2="622.47"/><line class="cls-10" x1="261.2" y1="606.37" x2="210.56" y2="626.99"/><line class="cls-10" x1="261.2" y1="610.89" x2="210.56" y2="631.52"/><line class="cls-10" x1="261.2" y1="615.41" x2="210.56" y2="636.04"/><line class="cls-10" x1="261.2" y1="619.94" x2="210.56" y2="640.56"/><line class="cls-10" x1="261.2" y1="624.46" x2="210.56" y2="645.09"/><line class="cls-10" x1="282.52" y1="628.99" x2="231.88" y2="649.61"/><line class="cls-10" x1="282.52" y1="633.51" x2="231.88" y2="654.14"/><line class="cls-10" x1="282.52" y1="638.03" x2="231.88" y2="658.66"/><line class="cls-10" x1="282.52" y1="642.56" x2="231.88" y2="663.18"/><line class="cls-10" x1="282.52" y1="647.08" x2="231.88" y2="667.71"/><line class="cls-10" x1="282.52" y1="651.61" x2="231.88" y2="672.23"/><line class="cls-10" x1="261.2" y1="543.03" x2="210.56" y2="563.66"/><line class="cls-10" x1="266.95" y1="630.98" x2="216.31" y2="651.61"/><line class="cls-10" x1="258.03" y1="630.25" x2="207.39" y2="650.88"/></g><ellipse class="cls-11" cx="281.72" cy="593.17" rx="49.46" ry="59.48" transform="translate(-206.81 154.36) rotate(-22.66)"/><ellipse class="cls-12" cx="287.35" cy="590.82" rx="43.35" ry="52.14" transform="translate(-205.47 156.35) rotate(-22.66)"/><path class="cls-8" d="M928.71,616.81h0l-.58.25c-23,9-50.68-8.51-61.87-39.22s-1.62-62.93,21.36-72c.2-.08.4-.16.6-.22v0l18.09-7.12,40.51,111.2Z"/><g class="cls-13"><line class="cls-10" x1="911.91" y1="506.4" x2="862.4" y2="525.38"/><line class="cls-10" x1="911.76" y1="510.93" x2="862.25" y2="529.9"/><line class="cls-10" x1="911.61" y1="515.45" x2="862.1" y2="534.43"/><line class="cls-10" x1="911.46" y1="519.97" x2="861.95" y2="538.95"/><line class="cls-10" x1="911.31" y1="524.49" x2="861.8" y2="543.47"/><line class="cls-10" x1="911.15" y1="529.01" x2="861.64" y2="547.99"/><line class="cls-10" x1="911" y1="533.53" x2="861.49" y2="552.51"/><line class="cls-10" x1="910.85" y1="538.06" x2="861.34" y2="557.03"/><line class="cls-10" x1="910.7" y1="542.58" x2="861.19" y2="561.55"/><line class="cls-10" x1="910.55" y1="547.1" x2="861.04" y2="566.08"/><line class="cls-10" x1="910.4" y1="551.62" x2="860.89" y2="570.6"/><line class="cls-10" x1="910.24" y1="556.14" x2="860.73" y2="575.12"/><line class="cls-10" x1="910.09" y1="560.66" x2="860.58" y2="579.64"/><line class="cls-10" x1="909.94" y1="565.18" x2="860.43" y2="584.16"/><line class="cls-10" x1="909.79" y1="569.71" x2="860.28" y2="588.68"/><line class="cls-10" x1="909.64" y1="574.23" x2="860.13" y2="593.2"/><line class="cls-10" x1="909.49" y1="578.75" x2="859.97" y2="597.73"/><line class="cls-10" x1="909.33" y1="583.27" x2="859.82" y2="602.25"/><line class="cls-10" x1="929.74" y1="588.48" x2="880.23" y2="607.46"/><line class="cls-10" x1="929.59" y1="593" x2="880.08" y2="611.98"/><line class="cls-10" x1="929.44" y1="597.52" x2="879.92" y2="616.5"/><line class="cls-10" x1="929.28" y1="602.05" x2="879.77" y2="621.02"/><line class="cls-10" x1="929.13" y1="606.57" x2="879.62" y2="625.54"/><line class="cls-10" x1="928.98" y1="611.09" x2="879.47" y2="630.07"/><line class="cls-10" x1="912.07" y1="501.88" x2="862.55" y2="520.86"/><line class="cls-10" x1="914.66" y1="589.97" x2="865.15" y2="608.95"/><line class="cls-10" x1="906.09" y1="588.95" x2="856.58" y2="607.93"/></g><ellipse class="cls-11" cx="930.17" cy="552.66" rx="47.92" ry="59.21" transform="translate(-121.91 300.12) rotate(-17.22)"/><ellipse class="cls-12" cx="935.68" cy="550.49" rx="42.01" ry="51.9" transform="translate(-121.02 301.65) rotate(-17.22)"/><polyline class="cls-14" points="235.69 142.15 253.18 142.07 281.38 282.92 285.72 282.83 257.55 142.05 261.92 142.03 290.07 282.74 294.41 282.65 266.3 142.01 270.67 141.99 298.76 282.56 303.1 282.47 275.04 141.97 279.42 141.95 307.45 282.38 311.79 282.29 309.46 270.6 318.15 270.43 315.83 258.75 324.53 258.6 322.2 246.92 330.91 246.78 328.59 235.12 337.3 234.99 333.83 217.52 342.54 217.4 339.08 199.95 347.8 199.85 351.26 217.29 359.98 217.18 363.43 234.6 372.14 234.47 374.44 246.07 383.14 245.94 385.43 257.52 394.13 257.37 396.42 268.95 405.12 268.79 407.39 280.35 411.74 280.27 408.32 262.93 399.63 263.08 397.34 251.51 388.64 251.66 386.35 240.07 377.64 240.21 375.35 228.61 366.63 228.73 363.19 211.32 354.47 211.43 351.01 193.99 333.56 194.17 337.03 211.64 328.31 211.75 331.79 229.23 323.07 229.35 325.39 241.02 316.69 241.16 319.01 252.83 310.31 252.98 312.64 264.67 308.29 264.75 304.8 247.21 313.5 247.07 311.17 235.38 319.88 235.25 317.56 223.58 326.27 223.46 322.79 205.97 331.51 205.87 328.04 188.39 336.77 188.31 335.61 182.49 344.34 182.41 345.5 188.22 354.23 188.14 357.68 205.57 366.4 205.47 369.84 222.87 378.56 222.75 380.85 234.34 389.56 234.22 391.85 245.8 400.55 245.66 402.83 257.22 407.18 257.15 384.39 141.52 388.76 141.5 416.09 280.18 420.43 280.09 393.14 141.49 397.51 141.47 424.78 280.01 429.13 279.92 401.88 141.45 406.26 141.44 433.47 279.83 437.82 279.75 410.63 141.42 415.01 141.41 442.17 279.66 472.59 279.06 445.63 141.3 450.01 141.28 476.94 278.98 481.29 278.89 454.38 141.27 458.76 141.25 485.63 278.81 489.98 278.72 463.13 141.24 467.51 141.22 494.32 278.64 498.67 278.55 471.88 141.21 476.26 141.19 503.02 278.47 533.45 277.88 506.89 141.1 511.26 141.08 537.8 277.8 542.14 277.71 515.64 141.07 520.01 141.06 546.49 277.63 550.84 277.55 524.39 141.04 528.77 141.03 555.19 277.46 559.53 277.38 533.14 141.02 537.52 141.01 559.49 254.59 607.37 253.81 608.46 259.46 560.59 260.27 561.69 265.94 609.54 265.11 610.63 270.75 562.78 271.62 563.88 277.3 637.8 275.91 659.54 275.5 658.47 269.89 654.12 269.97 653.05 264.35 644.35 264.5 643.27 258.88 634.57 259.02 611.92 140.81 616.29 140.8 637.84 253.33 646.55 253.19 647.62 258.81 656.33 258.67 657.4 264.28 661.75 264.2 662.82 269.81 684.57 269.43 683.51 263.83 666.1 264.13 665.03 258.52 660.68 258.59 659.61 252.98 650.9 253.12 649.83 247.5 641.12 247.64 620.67 140.79 625.05 140.78 644.4 241.95 648.75 241.89 629.42 140.76 633.8 140.75 654.18 247.44 658.54 247.37 638.18 140.75 642.55 140.74 663.96 252.91 668.32 252.85 669.38 258.45 699.85 257.96 698.79 252.37 703.14 252.3 681.95 140.65 686.33 140.64 706.44 246.66 710.8 246.59 690.7 140.63 695.08 140.62 714.1 240.96 718.45 240.9 699.46 140.62 703.84 140.61 723.86 246.4 715.15 246.53 716.21 252.1 707.5 252.24 708.56 257.81 704.2 257.89 705.26 263.47 687.86 263.76 688.92 269.35 710.67 268.97 709.62 263.39 713.97 263.32 712.91 257.75 721.62 257.61 720.56 252.04 729.27 251.9 708.22 140.6 712.59 140.59 734.67 257.4 725.97 257.54 727.02 263.1 718.32 263.25 719.37 268.82 715.02 268.9 716.08 274.47 703.59 274.7"/><polyline class="cls-14" points="541.85 455.5 519.61 341.25 515.27 341.36 537.54 455.67 533.23 455.85 510.94 341.48 506.61 341.6 528.92 456.02 494.44 457.43 493.31 451.68 523.49 450.47 522.38 444.75 492.19 445.94 491.06 440.19 521.26 439.03 520.14 433.3 489.94 434.45 475.31 359.77 509.95 358.76 508.84 353.04 474.19 354.02 473.06 348.28 507.72 347.32 506.61 341.6 467.6 342.65 490.13 457.6 485.82 457.78 463.27 342.77 458.94 342.89 481.51 457.95 455.65 459.01"/><polyline class="cls-14" points="541.85 455.5 619.45 452.37 618.36 446.71 557.99 449.1 556.88 443.4 617.27 441.05 616.18 435.39 555.77 437.7 552.45 420.6 551.34 414.9 559.98 414.59 558.88 408.89 567.52 408.59 566.41 402.9 575.06 402.61 573.96 396.93 582.6 396.64 581.51 390.96 598.8 390.4 599.9 396.06 586.93 396.49 588.02 402.17 579.38 402.46 580.48 408.14 571.84 408.44 572.94 414.13 564.3 414.44 565.4 420.13 556.77 420.44 560.09 437.53 564.4 437.37 562.19 425.98 570.83 425.66 569.72 419.97 578.36 419.66 577.26 413.98 585.9 413.67 584.8 407.99 593.44 407.69 592.35 402.02 600.99 401.73 599.9 396.06 608.54 395.77 598.72 344.83 594.39 344.95 603.13 390.25 598.8 390.4 591.15 350.73 552.16 351.82 554.37 363.21 550.04 363.33 546.72 346.25 551.05 346.13 598.72 344.83 597.63 339.17 541.28 340.67 545.71 363.46 541.38 363.59 535.84 335.08 596.54 333.51 597.63 339.17"/><polyline class="cls-14" points="441.6 343.36 440.47 337.59 379.79 339.22 385.54 368.26 389.87 368.13 385.27 344.91 441.6 343.36 442.74 349.13 395.08 350.47 390.75 350.59 394.2 367.99 398.52 367.86 396.23 356.27 435.21 355.14 443.16 395.54 447.48 395.4 438.4 349.25 442.74 349.13 452.94 401.02 444.29 401.31 445.43 407.08 436.79 407.38 437.93 413.16 429.29 413.47 430.43 419.25 421.79 419.57 422.94 425.36 414.3 425.68 415.45 431.47 406.82 431.8 409.11 443.39 404.8 443.56 401.35 426.16 409.99 425.84 408.84 420.04 417.48 419.72 416.33 413.93 424.97 413.62 423.83 407.84 432.47 407.54 431.33 401.76 444.29 401.31 443.16 395.54 425.87 396.12 427.01 401.9 418.37 402.2 419.51 407.99 410.87 408.29 412.01 414.09 403.38 414.4 404.52 420.2 395.89 420.51 397.04 426.32 400.49 443.73 460.87 441.37 462 447.13 401.64 449.54 402.79 455.34 463.13 452.9 464.27 458.66 403.94 461.15"/><line class="cls-14" x1="554.37" y1="363.21" x2="541.38" y2="363.59"/><line class="cls-14" x1="632.31" y1="360.93" x2="619.32" y2="361.31"/><line class="cls-14" x1="398.52" y1="367.86" x2="385.54" y2="368.26"/><polyline class="cls-14" points="703.59 274.7 690.47 274.94 695.33 300.51 701.1 330.85 674.6 331.52 613.88 333.06 619.32 361.31 623.65 361.18 619.31 338.6 675.67 337.13 676.74 342.74 629.06 344.01 624.73 344.13 627.98 361.06 632.31 360.93 630.14 349.65 669.14 348.58 676.65 387.88 680.97 387.74 672.4 342.85 676.74 342.74 686.37 393.21 677.72 393.49 678.79 399.1 670.15 399.39 671.22 405.01 662.58 405.31 663.65 410.93 655.01 411.24 656.09 416.87 647.46 417.17 648.54 422.81 639.9 423.13 642.07 434.41 637.75 434.57 634.5 417.64 643.14 417.33 642.05 411.69 650.69 411.39 649.61 405.75 658.26 405.46 657.18 399.83 665.82 399.54 664.75 393.92 677.72 393.49 676.65 387.88 659.35 388.43 660.42 394.06 651.78 394.34 652.86 399.97 644.21 400.26 645.29 405.9 636.65 406.2 637.73 411.84 629.09 412.14 630.18 417.79 633.44 434.74 693.85 432.46 694.92 438.06 634.52 440.38 635.61 446.03 695.99 443.67 697.06 449.27 576.34 454.1"/><path class="cls-7" d="M367.65,592.63a20.87,20.87,0,0,1,5.14-14.72,20.24,20.24,0,0,1,14.06-7.07c6.39-.38,10.83,2.19,13.74,6.61l-5.82,4.76c-2.1-2.77-4.45-4.52-8.45-4.29a11,11,0,0,0-7.63,4,14.25,14.25,0,0,0-3.43,10c.27,5,3.83,8.17,8.6,7.93,3.24-.16,5.27-1.6,7.64-3.81l5,4.92a17.2,17.2,0,0,1-12.35,5.92C375.09,607.32,368.15,601.81,367.65,592.63Z"/><path class="cls-7" d="M419,569.25l7.06-.43q3.58,17.49,7.16,35l-7.53.39-1.47-7.81-14.11.75q-2.31,4-4.63,8.08l-7.92.39Q408.33,587.59,419,569.25Zm4,20.43Q422,584,420.91,578.22l-6.73,11.95Z"/><path class="cls-7" d="M452.93,591.49l-5.48.31q-1.14,5.72-2.27,11.43l-7.34.39q3.56-17.82,7.1-35.69l12.16-.73c5-.3,8.41.65,10.77,2.89a10.12,10.12,0,0,1,2.95,7,12.12,12.12,0,0,1-2.61,8.56,15,15,0,0,1-7.5,4.68L467,602l-8.34.46Zm2.45-7c2.86-.16,5.25-1.06,6.6-2.65a5.13,5.13,0,0,0,1.2-3.67,3.78,3.78,0,0,0-1.2-2.76c-1-.9-2.6-1.31-4.94-1.17l-6.15.36-2,10.27Z"/><path class="cls-7" d="M484.46,572.75l-10.15.6q.7-3.63,1.43-7.28l27.65-1.66c-.48,2.43-.95,4.86-1.43,7.3l-10.16.6Q489,586.65,486.13,601l-7.34.42Z"/><path class="cls-7" d="M508.92,564.07l24.94-1.48c-.47,2.35-.94,4.71-1.4,7.06l-17.64,1-1.44,7.36,15.5-.92-1.41,7L512,585c-.51,2.53-1,5.07-1.52,7.61l17.93-1.05c-.47,2.35-.93,4.7-1.4,7.05l-25.18,1.47Z"/><path class="cls-7" d="M564.48,561.27l13-.75c7.87-.45,11.51,3.3,11.76,8.05s-2.45,7.89-6.69,9.15a7.48,7.48,0,0,1,5,6.9c.34,6.31-4.53,11.07-13.78,11.63l-16.4,1Q560.92,579.25,564.48,561.27Zm10,28.09c3.67-.22,5.87-2.08,5.72-4.81-.1-2.07-1.75-3.24-4.75-3.07l-8.06.48c-.51,2.64-1,5.28-1.54,7.92ZM576.14,575c3.77-.22,5.94-1.71,5.79-4.65-.1-1.82-1.55-3.1-4.8-2.91l-6.91.4-1.47,7.6Z"/><path class="cls-7" d="M599.14,559.3l7.34-.41-5.67,28.62,16.64-1L616,593.65l-24,1.48Q595.59,577.19,599.14,559.3Z"/><path class="cls-7" d="M640.5,556.81l7.06-.37q3.59,17.43,7.16,34.8l-7.53.47L645.72,584l-14.11.85L627,593l-7.91.49Q629.79,575,640.5,556.81Zm4,20.4-2.13-11.44q-3.37,6-6.73,12Z"/><path class="cls-7" d="M666.4,555.72l6.77-.34q5.46,10.77,10.91,21.44,2.26-11.12,4.54-22.2l7.25-.34q-3.55,17.37-7.11,34.85l-6.24.38q-5.67-11-11.33-22.07-2.33,11.52-4.65,23.07l-7.24.45Q662.84,573.29,666.4,555.72Z"/><path class="cls-7" d="M699.09,574.1a20.59,20.59,0,0,1,5.14-14.63,19.83,19.83,0,0,1,14.06-6.82c6.39-.28,10.83,2.29,13.74,6.6l-5.81,4.59c-2.11-2.71-4.46-4.44-8.46-4.25a11,11,0,0,0-7.63,3.89,13.94,13.94,0,0,0-3.43,9.91,7.79,7.79,0,0,0,8.6,7.76c3.24-.18,5.27-1.62,7.64-3.79l5,4.75a17.72,17.72,0,0,1-12.35,5.94C706.53,588.62,699.59,583.26,699.09,574.1Z"/><path class="cls-7" d="M739.44,552.31l7.34-.31L744,565.42l13.35-.65,2.79-13.32,7.34-.29q-3.54,16.73-7.1,33.6l-7.35.44,2.88-13.58-13.35.7q-1.44,6.84-2.87,13.68l-7.35.45Q735.89,569.32,739.44,552.31Z"/><path class="cls-7" d="M776,550.84q12-.48,23.93-.92c-.47,2.13-.93,4.27-1.4,6.41q-8.32.34-16.64.72c-.48,2.26-1,4.52-1.43,6.78l15.49-.69c-.47,2.11-.94,4.23-1.4,6.34l-15.5.77c-.5,2.34-1,4.69-1.51,7l17.92-1q-.69,3.23-1.4,6.45l-25.17,1.48Q772.41,567.48,776,550.84Z"/></g></g><g fill="#d62d45" transform="translate(633, 441) scale(0.55)"><path d="M 5.78125 -8.765625 C 7.28125 -8.941406 8.78125 -9.0625 10.28125 -9.125 C 11.789062 -9.1875 13.289062 -9.300781 14.78125 -9.46875 C 19.625 -6.789062 24.882812 -5.179688 30.5625 -4.640625 C 36.238281 -4.109375 41.84375 -4.160156 47.375 -4.796875 C 51.21875 -5.242188 56.53125 -6.453125 63.3125 -8.421875 C 70.101562 -10.390625 76.660156 -12.976562 82.984375 -16.1875 C 89.304688 -19.40625 94.695312 -23.210938 99.15625 -27.609375 C 103.613281 -32.003906 105.546875 -36.757812 104.953125 -41.875 C 104.515625 -45.707031 102.734375 -49.492188 99.609375 -53.234375 C 96.484375 -56.972656 92.832031 -60.546875 88.65625 -63.953125 C 84.488281 -67.367188 80.195312 -70.4375 75.78125 -73.15625 C 71.832031 -75.507812 68.445312 -77.71875 65.625 -79.78125 C 68.238281 -77.695312 71.53125 -75.375 75.5 -72.8125 C 79.90625 -70.070312 84.085938 -66.988281 88.046875 -63.5625 C 92.003906 -60.132812 95.503906 -56.488281 98.546875 -52.625 C 101.585938 -48.769531 103.328125 -44.925781 103.765625 -41.09375 C 104.328125 -36.195312 102.519531 -31.722656 98.34375 -27.671875 C 94.164062 -23.617188 89.113281 -20.117188 83.1875 -17.171875 C 77.257812 -14.234375 71.160156 -11.863281 64.890625 -10.0625 C 58.628906 -8.269531 53.691406 -7.164062 50.078125 -6.75 C 44.742188 -6.132812 39.410156 -6 34.078125 -6.34375 C 28.753906 -6.695312 23.601562 -7.890625 18.625 -9.921875 C 19.875 -10.285156 21.179688 -10.59375 22.546875 -10.84375 C 23.921875 -11.101562 25.25 -11.304688 26.53125 -11.453125 C 31.425781 -12.023438 35.96875 -12.390625 40.15625 -12.546875 C 44.351562 -12.710938 48.476562 -13.03125 52.53125 -13.5 C 57.007812 -14.019531 61.4375 -14.957031 65.8125 -16.3125 C 70.1875 -17.675781 74.890625 -19.941406 79.921875 -23.109375 L 85.171875 -22.4375 C 88.554688 -24.976562 91.738281 -27.820312 94.71875 -30.96875 C 97.695312 -34.125 98.929688 -37.941406 98.421875 -42.421875 C 98.003906 -46.046875 95.484375 -50.125 90.859375 -54.65625 C 86.234375 -59.195312 80.972656 -63.613281 75.078125 -67.90625 C 69.191406 -72.195312 63.285156 -76.160156 57.359375 -79.796875 C 51.441406 -83.429688 46.988281 -86.046875 44 -87.640625 L 44.515625 -105.515625 C 46.523438 -106.816406 48.984375 -107.957031 51.890625 -108.9375 C 54.804688 -109.925781 57.816406 -110.976562 60.921875 -112.09375 C 64.035156 -113.21875 66.90625 -114.578125 69.53125 -116.171875 C 72.164062 -117.765625 74.179688 -119.9375 75.578125 -122.6875 L 73.546875 -123.421875 C 73.410156 -122.765625 71.957031 -121.789062 69.1875 -120.5 C 66.425781 -119.207031 63.300781 -117.765625 59.8125 -116.171875 C 56.320312 -114.585938 52.988281 -113.070312 49.8125 -111.625 C 46.632812 -110.175781 44.441406 -109.0625 43.234375 -108.28125 L 43.640625 -107.671875 C 43.679688 -107.242188 43.378906 -106.992188 42.734375 -106.921875 L 42.390625 -107.203125 L 42 -85.140625 C 45.539062 -82.523438 50.320312 -79.457031 56.34375 -75.9375 C 62.363281 -72.425781 68.347656 -68.742188 74.296875 -64.890625 C 80.242188 -61.035156 85.503906 -57.050781 90.078125 -52.9375 C 94.648438 -48.832031 97.144531 -44.96875 97.5625 -41.34375 C 97.738281 -39.851562 97.375 -38.351562 96.46875 -36.84375 C 95.570312 -35.332031 94.390625 -33.898438 92.921875 -32.546875 C 91.460938 -31.203125 89.941406 -29.894531 88.359375 -28.625 C 87.171875 -27.625 86.066406 -26.847656 85.046875 -26.296875 C 85.859375 -26.828125 86.851562 -27.59375 88.03125 -28.59375 C 89.613281 -29.863281 91.082031 -31.164062 92.4375 -32.5 C 93.789062 -33.84375 94.921875 -35.265625 95.828125 -36.765625 C 96.742188 -38.273438 97.125 -39.671875 96.96875 -40.953125 C 96.507812 -44.992188 93.820312 -49.109375 88.90625 -53.296875 C 84 -57.484375 78.460938 -61.488281 72.296875 -65.3125 C 66.140625 -69.132812 60.0625 -72.695312 54.0625 -76 C 48.070312 -79.300781 43.765625 -82.101562 41.140625 -84.40625 C 41.296875 -88.519531 41.265625 -91.535156 41.046875 -93.453125 C 40.828125 -95.378906 40.628906 -98.054688 40.453125 -101.484375 C 41.078125 -101.765625 41.28125 -102.863281 41.0625 -104.78125 L 40.609375 -108.625 C 46.273438 -111.863281 51.582031 -114.523438 56.53125 -116.609375 C 61.476562 -118.691406 65.953125 -121.09375 69.953125 -123.8125 C 73.953125 -126.539062 77.488281 -130.023438 80.5625 -134.265625 C 83.644531 -138.503906 86.367188 -144.429688 88.734375 -152.046875 C 87.992188 -158.441406 84.421875 -163.160156 78.015625 -166.203125 C 71.617188 -169.242188 63.628906 -170.210938 54.046875 -169.109375 C 51.066406 -168.765625 47.972656 -167.972656 44.765625 -166.734375 C 41.554688 -165.503906 38.316406 -164.109375 35.046875 -162.546875 C 31.773438 -160.992188 28.5625 -159.382812 25.40625 -157.71875 C 22.25 -156.050781 19.335938 -154.640625 16.671875 -153.484375 C 16.285156 -154.941406 15.546875 -156.203125 14.453125 -157.265625 C 13.359375 -158.328125 12.722656 -159.601562 12.546875 -161.09375 C 12.398438 -162.375 13.015625 -163.578125 14.390625 -164.703125 C 15.773438 -165.835938 17.441406 -166.84375 19.390625 -167.71875 C 21.347656 -168.59375 23.257812 -169.351562 25.125 -170 C 27 -170.644531 28.347656 -171.117188 29.171875 -171.421875 L 27.765625 -175.140625 C 26.546875 -174.578125 24.191406 -173.929688 20.703125 -173.203125 C 17.222656 -172.484375 13.675781 -171.914062 10.0625 -171.5 C 6.4375 -171.082031 3.085938 -171.070312 0.015625 -171.46875 C -3.046875 -171.875 -4.695312 -173.144531 -4.9375 -175.28125 C -5.28125 -178.269531 -2.835938 -181.410156 2.390625 -184.703125 C 7.617188 -187.992188 13.628906 -191.054688 20.421875 -193.890625 C 27.222656 -196.734375 33.859375 -199.117188 40.328125 -201.046875 C 46.796875 -202.972656 51.097656 -204.0625 53.234375 -204.3125 C 60.679688 -205.164062 68.609375 -204.726562 77.015625 -203 C 85.421875 -201.269531 93.257812 -198.335938 100.53125 -194.203125 C 107.800781 -190.078125 113.957031 -184.90625 119 -178.6875 C 124.039062 -172.46875 127.039062 -165.207031 128 -156.90625 L 128.140625 -155.625 C 128.628906 -149.414062 127.523438 -143.507812 124.828125 -137.90625 C 122.128906 -132.3125 118.679688 -127.113281 114.484375 -122.3125 C 110.285156 -117.507812 105.648438 -113.195312 100.578125 -109.375 C 95.515625 -105.550781 90.96875 -102.4375 86.9375 -100.03125 C 93.019531 -97.707031 98.765625 -94.644531 104.171875 -90.84375 C 109.578125 -87.039062 114.332031 -82.78125 118.4375 -78.0625 C 122.550781 -73.351562 125.941406 -68.296875 128.609375 -62.890625 C 131.285156 -57.484375 132.941406 -52.007812 133.578125 -46.46875 C 134.972656 -34.320312 132.863281 -24.035156 127.25 -15.609375 C 121.632812 -7.191406 114.226562 -0.242188 105.03125 5.234375 C 95.84375 10.722656 85.753906 14.960938 74.765625 17.953125 C 63.773438 20.941406 53.488281 22.988281 43.90625 24.09375 C 42.625 24.238281 40.3125 24.335938 36.96875 24.390625 C 33.632812 24.453125 30.164062 24.3125 26.5625 23.96875 C 22.957031 23.632812 19.75 22.984375 16.9375 22.015625 C 14.132812 21.046875 12.625 19.601562 12.40625 17.6875 L 12.84375 16.015625 C 24.601562 18.753906 36.664062 19.414062 49.03125 18 C 56.90625 17.09375 64.585938 15.394531 72.078125 12.90625 C 79.578125 10.425781 86.894531 7.378906 94.03125 3.765625 C 87.050781 6.929688 79.863281 9.695312 72.46875 12.0625 C 65.082031 14.425781 57.550781 16.050781 49.875 16.9375 C 37.519531 18.351562 25.785156 17.648438 14.671875 14.828125 L 16.5 11.0625 C 15.132812 10.570312 13.535156 9.832031 11.703125 8.84375 C 9.867188 7.863281 8.066406 6.71875 6.296875 5.40625 C 4.523438 4.101562 3.019531 2.769531 1.78125 1.40625 C 0.539062 0.0390625 -0.175781 -1.492188 -0.375 -3.203125 C -0.5625 -4.910156 0.0390625 -6.222656 1.4375 -7.140625 C 2.84375 -8.054688 4.289062 -8.597656 5.78125 -8.765625 Z M 121.34375 -20.4375 C 125.96875 -27.226562 127.691406 -35.738281 126.515625 -45.96875 C 125.609375 -53.851562 122.859375 -60.878906 118.265625 -67.046875 C 113.691406 -72.992188 108.429688 -78.328125 102.484375 -83.046875 C 108.710938 -77.710938 113.851562 -71.503906 117.90625 -64.421875 C 122.1875 -57.359375 124.828125 -49.457031 125.828125 -40.71875 C 126.242188 -37.09375 125.75 -33.414062 124.34375 -29.6875 C 122.9375 -25.96875 121.078125 -22.410156 118.765625 -19.015625 C 116.453125 -15.617188 113.847656 -12.457031 110.953125 -9.53125 C 108.640625 -7.101562 106.488281 -5.132812 104.5 -3.625 C 111.46875 -8.726562 117.082031 -14.332031 121.34375 -20.4375 Z M 103.625 -2.859375 C 103.4375 -2.617188 103.234375 -2.488281 103.015625 -2.46875 C 103.210938 -2.695312 103.414062 -2.828125 103.625 -2.859375 Z M 103.625 -2.859375 "/></g></svg>
